{"title":"Party.Hardcore.Gone.Crazy.Vol.4.WEB-DL.XXX.XViD-BTRG","uid":8962429,"size":2043279360,"categoryP":"porn","categoryS":"movies","magnet":"?xt=urn:btih:7769a9fc66dfa838ad357c467f20c33ddff6f9af&amp;dn=Party.Hardcore.Gone.Crazy.Vol.4.WEB-DL.XXX.XViD-BTRG&amp;tr=udp%3A%2F%2Ftracker.openbittorrent.com%3A80&amp;tr=udp%3A%2F%2Fopen.demonii.com%3A1337&amp;tr=udp%3A%2F%2Ftracker.coppersurfer.tk%3A6969&amp;tr=udp%3A%2F%2Fexodus.desync.com%3A6969","seeders":1,"leechers":0,"uploader":"BTRG","files":1,"time":1380144820,"description":"\n\nFormat                                   : AVI\nFormat/Info                              : Audio Video Interleave\nFile size                                : 1.90 GiB\nDuration                                 : 2h 53mn\nOverall bit rate                         : 1 574 Kbps\nWriting application                      : VirtualDubMod 1.5.10.3 | www.virtualdub-fr.org || (build 2550/release)\nWriting library                          : VirtualDubMod build 2550/release\n\nVideo\nID                                       : 0\nFormat                                   : xvid\nCodec ID                                 : xvid\nDuration                                 : 2h 53mn\nBit rate                                 : 1 500 Kbps\nWidth                                    : 1 024 pixels\nHeight                                   : 576 pixels\nDisplay aspect ratio                     : 16:9\nFrame rate                               : 25.000 fps\nBits/(Pixel*Frame)                       : 0.102\nStream size                              : 1.81 GiB (95%)\n\nAudio\nID                                       : 1\nFormat                                   : AC-3\nFormat/Info                              : Audio Coding 3\nMode extension                           : CM (complete main)\nFormat settings, Endianness              : Big\nCodec ID                                 : 2000\nDuration                                 : 2h 53mn\nBit rate mode                            : Constant\nBit rate                                 : 64.0 Kbps\nChannel(s)                               : 2 channels\nChannel positions                        : Front: L R\nSampling rate                            : 44.1 KHz\nBit depth                                : 16 bits\nCompression mode                         : Lossy\nStream size                              : 79.3 MiB (4%)\nAlignment                                : Split accross interleaves\nInterleave, duration                     : 40 ms (1.00 video frame)\nInterleave, preload duration             : 500 ms","torrent":{"xt":"urn:btih:7769a9fc66dfa838ad357c467f20c33ddff6f9af","amp;dn":"Party.Hardcore.Gone.Crazy.Vol.4.WEB-DL.XXX.XViD-BTRG","amp;tr":["udp%3A%2F%2Ftracker.openbittorrent.com%3A80","udp%3A%2F%2Fopen.demonii.com%3A1337","udp%3A%2F%2Ftracker.coppersurfer.tk%3A6969","udp%3A%2F%2Fexodus.desync.com%3A6969"],"infoHash":"7769a9fc66dfa838ad357c467f20c33ddff6f9af","infoHashBuffer":{"type":"Buffer","data":[119,105,169,252,102,223,168,56,173,53,124,70,127,32,195,61,223,246,249,175]},"announce":[],"urlList":[]}}